# xmcd
#
# Track frame offsets:
#	150
#	11670
#	27502
#	43402
#	56414
#	70754
#
# Disc length: 1145 seconds
#
# Revision: 1
# Processed by: cddbd v1.5.2PL0 Copyright (c) Steve Scherf et al.
# Submitted via: audiograbber 1.83.01
#
DISCID=4e047706
DTITLE=Heartburn Billy - His burning Harz
DYEAR=2013
DGENRE=
TTITLE0=Ein kleines Stück vom Westharz
TTITLE1=Die Harzer Brockenbahn
TTITLE2=Der Bergmannstochter Traum
TTITLE3=Der Tanz an Walpurgis
TTITLE4=Ich hab mein Girl im Harz-Stern
TTITLE5=Köhlerliesel
EXTD=Title and artist name may vary
EXTT0=
EXTT1=
EXTT2=
EXTT3=
EXTT4=
EXTT5=
PLAYORDER=
